<?xml version="1.0" encoding="UTF-8"?>
<svg id="Layer_2" data-name="Layer 2" xmlns="http://www.w3.org/2000/svg" viewBox="0 0 159.44 187.24">
  <defs>
    <style>
      .cls-1 {
        fill: #fffbf8;
      }

      .cls-2 {
        fill: #fffaf6;
      }
    </style>
  </defs>
  <g id="Objects">
    <g>
      <path class="cls-2" d="m150.08,137.44c-2.5,4.4-5.45,8.54-8.81,12.35l.09.09C73.96,220.51-30.85,127.43,31.36,52.4l-8.62-8.63c-78.6,95.4,66.3,204.45,136.23,102.55l-8.89-8.89Z"/>
      <path class="cls-1" d="m40.53,146.9c22.94,23.88,63.77,25.21,88.22,2.89l-8.63-8.64C56.92,189.83-6.13,87.73,65.68,53.04l-9.16-9.16c-38.14,18.43-46.83,73.92-16,103.02Z"/>
      <path class="cls-1" d="m159.43,85.18C160.29.16,45.07-32.57,1.04,40.1l8.89,8.89c2.5-4.4,5.45-8.54,8.81-12.35l-.09-.09c67.4-70.63,172.21,22.44,110.01,97.48l8.62,8.63c14.3-15.75,22.16-36.09,22.16-57.48Z"/>
      <path class="cls-2" d="m94.32,133.39l9.16,9.16c59.55-30.88,37.42-121.92-29.66-121.93-15.54-.07-30.95,5.71-42.57,16.02l8.64,8.64c63.2-48.68,126.25,53.43,54.44,88.12Z"/>
    </g>
  </g>
</svg>