<?xml version="1.0" encoding="UTF-8"?>
<svg id="Layer_2" data-name="Layer 2" xmlns="http://www.w3.org/2000/svg" viewBox="0 0 186.38 186.38">
  <defs>
    <style>
      .cls-1 {
        fill: #fffbf8;
      }

      .cls-2 {
        fill: #fffaf6;
      }

      .cls-3 {
        fill: none;
      }
    </style>
  </defs>
  <g id="Objects">
    <g>
      <polygon class="cls-3" points="114.7 106.99 114.7 71.68 79.39 71.68 75.54 71.68 71.68 71.68 71.68 79.39 71.68 114.7 110.84 114.7 114.7 114.7 114.7 110.85 114.7 106.99"/>
      <path class="cls-1" d="m167.87,18.51C155.94,6.57,140.07,0,123.19,0c-16.88,0-32.75,6.57-44.68,18.51-9.33,9.33-15.38,21.06-17.58,33.8-.22,1.29-.41,2.58-.55,3.89-.14,1.28-.24,2.58-.31,3.88-.05,1.03-.08,2.07-.08,3.11v8.59s0,3.87,0,3.87v3.87s0,46.87,0,46.87h46.87s3.87,0,3.87,0h3.87c.07-1.05.1-2.12.1-3.19v-8.49h-3.86s-39.16,0-39.16,0v-35.3s0-7.71,0-7.71v-8.49c0-1.07.03-2.13.1-3.19.08-1.3.21-2.58.38-3.86.18-1.31.41-2.59.68-3.86,2.12-9.84,7.07-18.63,13.93-25.5,9.33-9.33,22.2-15.1,36.41-15.11,28.4,0,51.51,23.11,51.51,51.51,0,14.2-5.78,27.08-15.11,36.41-6.87,6.87-15.66,11.81-25.5,13.93v9.66c0,.76-.01,1.52-.04,2.26,12.74-2.2,24.48-8.25,33.81-17.58,11.94-11.94,18.51-27.81,18.51-44.68s-6.57-32.75-18.51-44.68Z"/>
      <path class="cls-2" d="m71.68,71.68h43.02s0,35.31,0,35.31v16.2c0,1.07-.04,2.13-.1,3.19-.08,1.3-.2,2.59-.38,3.86-.17,1.3-.4,2.59-.68,3.85-2.13,9.84-7.07,18.64-13.94,25.51-9.33,9.33-22.2,15.1-36.41,15.11-28.4,0-51.51-23.11-51.51-51.51,0-14.2,5.78-27.08,15.11-36.41,6.87-6.87,15.67-11.81,25.5-13.94v-9.66c0-.76.01-1.52.04-2.27-12.74,2.19-24.48,8.25-33.82,17.58C6.57,90.44,0,106.31,0,123.19,0,140.07,6.57,155.94,18.51,167.87c11.94,11.94,27.81,18.51,44.68,18.51s32.75-6.57,44.68-18.51c11.2-11.2,17.68-25.86,18.43-41.57.02-.5.04-1.01.06-1.51,0-.27.01-.55.01-.82,0-.26,0-.52,0-.78h0v-63.19s-46.87,0-46.87,0h-3.86s-3.87,0-3.87,0c-.07,1.05-.1,2.12-.1,3.19v8.49Z"/>
    </g>
  </g>
</svg>