<?xml version="1.0" encoding="UTF-8"?>
<svg id="Layer_2" data-name="Layer 2" xmlns="http://www.w3.org/2000/svg" viewBox="0 0 127.61 170.42">
  <defs>
    <style>
      .cls-1 {
        fill: #fff;
      }

      .cls-2 {
        fill: #fffbf8;
      }
    </style>
  </defs>
  <g id="Objects">
    <g>
      <path class="cls-2" d="m99.38,97.58v27.99H28.71c-1.85,0-3.65-.17-5.4-.51-.25-.05-.5-.11-.75-.16-3.94-.86-7.57-2.53-10.73-4.83-7.16-5.23-11.83-13.67-11.83-23.19V0c14.2,8.08,23.31,23.32,23.31,40.03v45.84c0,9.05,7.35,16.4,16.4,16.4h48.2c4.46,0,8.51-1.79,11.47-4.69Z"/>
      <path class="cls-2" d="m127.61,0v54.08c-5.02-7.42-12.87-12.84-22.17-14.61-.37-.07-.74-.14-1.12-.19.26-16.42,9.31-31.32,23.29-39.28Z"/>
      <path class="cls-1" d="m127.61,73.56v96.86c-14.19-8.08-23.3-23.32-23.3-40.03v-45.84c0-9.04-7.36-16.4-16.4-16.4h-48.2c-4.46,0-8.51,1.79-11.47,4.69v-27.99h70.67c1.85,0,3.65.17,5.4.51,13.25,2.53,23.3,14.21,23.3,28.2Z"/>
      <path class="cls-1" d="m23.3,131.14c-.26,16.42-9.31,31.32-23.3,39.28v-54.1c2.22,3.28,5.02,6.2,8.3,8.59,3.9,2.85,8.27,4.82,12.97,5.85l.16.04c.25.05.5.1.74.15.37.07.75.14,1.13.19Z"/>
    </g>
  </g>
</svg>