<?xml version="1.0" encoding="UTF-8"?>
<svg id="Layer_2" data-name="Layer 2" xmlns="http://www.w3.org/2000/svg" viewBox="0 0 214.53 180.71">
  <defs>
    <style>
      .cls-1 {
        fill: #fff;
      }

      .cls-2 {
        fill: #fffbf8;
      }

      .cls-3 {
        fill: none;
      }
    </style>
  </defs>
  <g id="Objects">
    <g>
      <path class="cls-3" d="m96.3,27.19l5.23,9.06,17.18,29.77c1.01,0,2-.01,2.99-.01,1.91,0,3.83.01,5.75.04l-31.16-53.97-34.02,58.92c3.16-.56,6.37-1.08,9.61-1.54l19.17-33.21,5.24-9.06Z"/>
      <path class="cls-3" d="m135.2,106.66l-11.76-20.37c-26.63,4.03-49.52,11.19-65.98,20.37h77.74Z"/>
      <path class="cls-2" d="m96.3,39.28l18.95,32.83c2.14-.04,4.29-.06,6.45-.06,5.55,0,11.02.12,16.41.37L96.3,0l-45.94,79.57c7.98-1.82,16.44-3.34,25.29-4.53l20.65-35.77Zm-34.02,31.73L96.3,12.08l31.16,53.97c-1.92-.03-3.84-.04-5.75-.04-.99,0-1.98,0-2.99.01l-17.18-29.77-5.23-9.06-5.24,9.06-19.17,33.21c-3.24.47-6.45.98-9.61,1.54Z"/>
      <path class="cls-1" d="m68.12,180.71c-23.7-10.41-38.18-24.35-38.18-39.66,0-5.1,1.6-10.04,4.62-14.75h134.65l-24.53-42.49c9.33-.78,19-1.18,28.9-1.18,13.33,0,26.24.74,38.49,2.12-.71-.23-1.43-.45-2.15-.67.72.22,1.45.44,2.15.67.82.09,1.64.19,2.46.29-2.16-.55-4.35-1.07-6.59-1.57,0,0,0,0,0,0-20-4.46-43.02-7.01-67.51-7.04-.14,0-.29,0-.44,0-5.58,0-11.07.13-16.48.39-1.8.08-3.59.18-5.37.3h0,0c-17.07,1.07-33.11,3.38-47.54,6.69-1.25.29-2.48.58-3.7.88-8.56,2.1-16.51,4.57-23.72,7.34C16.57,102.23,0,116.61,0,132.55c0,20.46,27.31,38.36,68.12,48.17Zm55.32-94.42l11.76,20.37H57.46c16.46-9.18,39.36-16.34,65.98-20.37Z"/>
    </g>
  </g>
</svg>