<!DOCTYPE svg PUBLIC "-//W3C//DTD SVG 1.1//EN" "http://www.w3.org/Graphics/SVG/1.1/DTD/svg11.dtd">
<!-- Uploaded to: SVG Repo, www.svgrepo.com, Transformed by: SVG Repo Mixer Tools -->
<svg fill="#f7f7f7" width="800px" height="800px" viewBox="0 0 32 32" xmlns="http://www.w3.org/2000/svg" stroke="#f7f7f7">
<g id="SVGRepo_bgCarrier" stroke-width="0"/>
<g id="SVGRepo_tracerCarrier" stroke-linecap="round" stroke-linejoin="round"/>
<g id="SVGRepo_iconCarrier"> <path d="M22.859 27.427h-18.286c0 2.526 2.047 4.573 4.568 4.573h13.714c2.526 0 4.573-2.047 4.573-4.573v-18.771c0-0.094-0.073-0.167-0.167-0.167h-4.24c-0.089 0-0.161 0.073-0.161 0.167v18.776zM22.859 0c2.521 0 4.568 2.047 4.568 4.573h-18.281v18.771c0 0.089-0.078 0.167-0.167 0.167h-4.24c-0.094 0-0.167-0.078-0.167-0.167v-18.771c0-2.526 2.047-4.573 4.568-4.573h13.719z"/> </g>
</svg>