<?xml version="1.0" encoding="UTF-8"?>
<svg id="Layer_2" data-name="Layer 2" xmlns="http://www.w3.org/2000/svg" viewBox="0 0 177.49 177.58">
  <defs>
    <style>
      .cls-1 {
        fill: #fff;
      }

      .cls-2 {
        fill: #fffbf8;
      }

      .cls-3 {
        fill: none;
      }
    </style>
  </defs>
  <g id="Objects">
    <g>
      <path class="cls-3" d="m59.7,158.89c3.69-8.53,2.05-18.82-4.91-25.78l-37.74-37.74c6.69,20.55,17.13,38.01,31.1,51.98l11.55,11.55Z"/>
      <path class="cls-3" d="m122.7,44.48l37.74,37.74c-6.69-20.55-17.13-38-31.1-51.98l-11.55-11.55c-3.69,8.53-2.05,18.83,4.91,25.79Z"/>
      <path class="cls-3" d="m44.3,54.8l37.74-37.74c-20.55,6.69-38.01,17.13-51.98,31.1l-11.56,11.56c2.9,1.25,6.04,1.92,9.29,1.92,6.23,0,12.09-2.43,16.5-6.84Z"/>
      <path class="cls-3" d="m133.19,122.78l-37.74,37.74c20.55-6.69,38.01-17.13,51.98-31.1l11.56-11.56c-2.9-1.25-6.04-1.92-9.29-1.92-6.23,0-12.09,2.43-16.5,6.83Z"/>
      <path class="cls-2" d="m50.37,60.86L111.22,0l-24.19,6.62c-25.17,6.89-46.38,18.82-63.03,35.47L5.25,60.86c6.23,6.23,14.39,9.34,22.56,9.34s16.33-3.12,22.56-9.34Zm-20.3-12.7c13.97-13.97,31.43-24.41,51.98-31.1l-37.74,37.74c-4.41,4.41-10.26,6.84-16.5,6.84-3.25,0-6.4-.66-9.29-1.92l11.56-11.56Z"/>
      <path class="cls-1" d="m42.1,153.41l18.76,18.76c6.23-6.23,9.34-14.39,9.34-22.56s-3.11-16.33-9.34-22.56L0,66.19l6.62,24.19c6.89,25.17,18.82,46.38,35.48,63.03Zm12.7-20.3c6.96,6.96,8.6,17.25,4.91,25.78l-11.55-11.55c-13.97-13.97-24.41-31.43-31.1-51.98l37.74,37.74Z"/>
      <path class="cls-2" d="m149.69,107.38c-8.16,0-16.33,3.12-22.56,9.35l-60.86,60.86,24.19-6.62c25.17-6.89,46.38-18.82,63.03-35.48l18.76-18.76c-3.11-3.11-6.71-5.45-10.56-7.01-3.84-1.56-7.92-2.34-12.01-2.34Zm-2.26,22.05c-13.97,13.97-31.43,24.42-51.98,31.1l37.74-37.74c4.41-4.41,10.27-6.83,16.5-6.83,3.25,0,6.4.66,9.29,1.92l-11.56,11.56Z"/>
      <path class="cls-1" d="m116.64,50.54l60.86,60.86-6.62-24.19c-6.89-25.17-18.82-46.38-35.48-63.03l-18.76-18.76c-12.46,12.46-12.46,32.66,0,45.12Zm1.15-31.85l11.55,11.55c13.97,13.97,24.41,31.43,31.1,51.98l-37.74-37.74c-6.96-6.96-8.6-17.26-4.91-25.79Z"/>
    </g>
  </g>
</svg>