<?xml version="1.0" encoding="UTF-8"?>
<svg id="Layer_2" data-name="Layer 2" xmlns="http://www.w3.org/2000/svg" viewBox="0 0 224.9 182.17">
  <defs>
    <style>
      .cls-1 {
        fill: #fff;
      }

      .cls-2 {
        fill: #fffbf8;
      }

      .cls-3 {
        fill: none;
      }
    </style>
  </defs>
  <g id="Objects">
    <g>
      <polygon class="cls-3" points="76.09 123.28 115.62 123.28 57.39 59.17 17.87 59.17 76.09 123.28"/>
      <polygon class="cls-3" points="148.8 58.89 109.28 58.89 167.5 123 207.03 123 148.8 58.89"/>
      <path class="cls-1" d="m60.9,51.26H0l72.59,79.93h60.9L60.9,51.26Zm-43.03,7.91h39.53l58.22,64.11h-39.53L17.87,59.17Z"/>
      <path class="cls-2" d="m122.18,0l-61.28,48.18H0l13.41-10.54C44.42,13.26,82.73,0,122.18,0Z"/>
      <path class="cls-1" d="m152.31,50.98h-60.9l72.59,79.93h60.9l-72.59-79.93Zm-43.03,7.91h39.52l58.23,64.11h-39.53l-58.22-64.11Z"/>
      <path class="cls-2" d="m224.9,133.99l-13.41,10.54c-15.5,12.19-32.84,21.6-51.22,27.96-18.38,6.37-37.82,9.68-57.55,9.68l61.28-48.18h60.9Z"/>
    </g>
  </g>
</svg>