<?xml version="1.0" encoding="UTF-8"?>
<svg id="Layer_2" data-name="Layer 2" xmlns="http://www.w3.org/2000/svg" viewBox="0 0 229.42 159.12">
  <defs>
    <style>
      .cls-1 {
        fill: #fff;
      }
    </style>
  </defs>
  <g id="Objects">
    <g>
      <polygon class="cls-1" points="65.59 159.12 65.58 159.09 59.58 148.7 12 66.3 0 66.3 53.58 159.1 53.57 159.12 53.59 159.12 65.56 159.12 65.59 159.12"/>
      <polygon class="cls-1" points="113.58 159.12 113.57 159.09 107.57 148.7 101.57 138.31 95.57 127.92 89.58 117.53 83.57 107.14 59.99 66.3 48 66.3 77.57 117.53 83.57 127.92 89.58 138.31 95.57 148.7 101.57 159.09 101.56 159.12 101.59 159.12 113.56 159.12 113.58 159.12"/>
      <polygon class="cls-1" points="131.57 148.7 125.57 138.31 119.57 127.92 113.57 117.53 107.57 107.14 101.57 96.75 95.57 86.36 83.99 66.3 71.99 66.3 89.57 96.75 101.57 117.53 107.57 127.92 113.57 138.31 119.57 148.7 125.57 159.09 125.55 159.12 125.58 159.12 137.56 159.12 137.58 159.12 137.57 159.1 131.57 148.7"/>
      <polygon class="cls-1" points="157.43 0 145.43 0 101.63 75.86 107.64 86.25 157.43 0"/>
      <polygon class="cls-1" points="77.59 159.12 89.56 159.12 89.59 159.12 89.58 159.09 83.57 148.7 77.58 138.31 71.58 127.92 36 66.3 24 66.3 65.58 138.31 71.58 148.7 77.58 159.09 77.56 159.12 77.59 159.12"/>
      <polygon class="cls-1" points="119.63 107.03 181.43 0 169.43 0 113.63 96.64 113.7 96.75 119.63 107.03"/>
      <polygon class="cls-1" points="131.63 127.82 205.42 0 193.43 0 125.63 117.42 125.69 117.53 131.63 127.82"/>
      <polygon class="cls-1" points="229.42 0 217.42 0 137.63 138.2 137.69 138.31 143.63 148.6 229.42 0"/>
    </g>
  </g>
</svg>