<!DOCTYPE svg PUBLIC "-//W3C//DTD SVG 1.1//EN" "http://www.w3.org/Graphics/SVG/1.1/DTD/svg11.dtd">
<!-- Uploaded to: SVG Repo, www.svgrepo.com, Transformed by: SVG Repo Mixer Tools -->
<svg fill="#ffffff" width="800px" height="800px" viewBox="0 0 24 24" id="mobile-phone-rotate-right" data-name="Flat Line" xmlns="http://www.w3.org/2000/svg" class="icon flat-line" transform="rotate(90)">
<g id="SVGRepo_bgCarrier" stroke-width="0"/>
<g id="SVGRepo_tracerCarrier" stroke-linecap="round" stroke-linejoin="round" stroke="#ffffff" stroke-width="0.048"/>
<g id="SVGRepo_iconCarrier">
<path id="secondary" d="M21,10V7a1,1,0,0,0-1-1H4A1,1,0,0,0,3,7V17a1,1,0,0,0,1,1H20a1,1,0,0,0,1-1V14l-2-.5v-3Z" style="fill: #DFE698; stroke-width: 2;"/>
<path id="primary" d="M19,13.5v-3l2-.5v4ZM4,18H20a1,1,0,0,0,1-1V7a1,1,0,0,0-1-1H4A1,1,0,0,0,3,7V17A1,1,0,0,0,4,18Z" style="fill: none; stroke: #ffffff; stroke-linecap: round; stroke-linejoin: round; stroke-width: 2;"/>
</g>
</svg>